<?xml version="1.0" encoding="utf-8"?>
<svg version="1.1"
     xmlns="http://www.w3.org/2000/svg"
     xmlns:xlink="http://www.w3.org/1999/xlink"
     width="256"
     height="256"
     viewBox="0 0 256 256">

  <defs>
    <!-- Twilight indigo radial background -->
    <radialGradient id="indigoTwilight" cx="50%" cy="50%" r="75%">
      <stop offset="0%"  stop-color="#3b3a5f"/>
      <stop offset="45%" stop-color="#2b2948"/>
      <stop offset="100%" stop-color="#171628"/>
    </radialGradient>

    <!-- Warm gold stroke gradient -->
    <linearGradient id="goldStroke" x1="0%" y1="0%" x2="100%" y2="100%">
      <stop offset="0%"   stop-color="#f0d39a"/>
      <stop offset="50%"  stop-color="#d2a85b"/>
      <stop offset="100%" stop-color="#a87932"/>
    </linearGradient>

    <!-- Original geometry (unchanged) -->
    <path id="path_c9d98bc8958738934ec77f5d536a05b3"
          d="M 154.4756 172.8824 C 154.6961 172.8601 155.688 172.7708 156.6799 172.6839 C 170.3977 171.4817 180.4987 167.8906 182.7052 163.4312 C 183.1217 162.5895 183.1315 162.5463 183.1315 161.5587 C 183.1315 160.5902 183.1154 160.5146 182.7471 159.7599 C 181.8324 157.8851 179.2682 155.9879 175.5419 154.4289 L 174.8658 154.146 L 174.0511 155.0181 C 173.603 155.4977 172.9393 156.1024 172.5763 156.3618 C 171.7139 156.9781 171.9485 157.0184 173.2609 156.4795 C 173.8199 156.2499 174.3028 156.0877 174.334 156.1189 C 174.3996 156.1846 173.2033 157.4877 172.611 157.9959 C 172.3906 158.1851 172.1797 158.3823 172.1425 158.4342 C 172.1053 158.4861 172.3834 158.8303 172.7605 159.1992 C 173.6834 160.1017 174.0042 160.7314 174.0096 161.6514 C 174.013 162.2199 173.9612 162.4609 173.7384 162.9153 C 173.4441 163.5154 172.7236 164.2858 171.9094 164.8709 C 171.4492 165.2016 170.1437 165.916 169.9994 165.916 C 169.9655 165.916 170.1561 165.7424 170.4228 165.5303 C 171.8614 164.3864 172.4671 163.4757 172.5394 162.3484 C 172.5977 161.4383 172.4023 160.8131 171.8061 160.002 C 171.1804 159.1508 171.1002 159.1246 170.3108 159.5144 C 169.9503 159.6925 169.6552 159.8769 169.6552 159.9242 C 169.6552 159.9715 169.9096 159.9784 170.2205 159.9395 C 170.6354 159.8876 170.7668 159.8994 170.7145 159.9841 C 170.5261 160.2895 167.9541 161.8453 166.0369 162.8137 C 164.8973 163.3893 163.4217 164.0215 163.3606 163.9602 C 163.3393 163.9389 163.4957 163.7728 163.7081 163.591 C 166.0677 161.5722 167.8694 159.2616 169.2108 156.534 C 169.79 155.3562 170.539 153.2519 170.8537 151.9183 C 171.0024 151.288 171.0992 149.8638 170.9629 150.3128 C 170.9126 150.4784 170.7585 150.9854 170.6204 151.4396 C 169.4408 155.3199 166.7094 159.3891 163.4516 162.1194 C 158.4836 166.283 152.2129 168.1477 145.6584 167.4104 C 144.4504 167.2746 142.6025 166.9112 142.6025 166.8095 C 142.6025 166.7646 142.7716 166.6985 142.9782 166.6628 C 145.4049 166.2427 148.6494 165.0229 150.8812 163.6915 C 155.8137 160.749 159.2309 156.2361 160.9413 150.4055 C 161.1182 149.8026 161.2958 149.2733 161.3359 149.2292 C 161.3761 149.1851 161.5304 149.9301 161.6787 150.8848 C 162.0067 152.9958 162.0225 153.0722 162.1295 153.0722 C 162.1763 153.0722 162.268 152.79 162.333 152.4451 C 162.5374 151.3622 163.1319 149.3876 163.5368 148.447 C 164.2388 146.8162 165.0663 145.6269 166.1671 144.6666 C 166.5637 144.3206 166.9359 144.0534 166.9942 144.0727 C 167.0569 144.0934 167.132 144.6785 167.1778 145.5019 C 167.2571 146.9286 167.3842 147.3941 167.5019 146.6885 C 167.5376 146.4743 167.6875 145.667 167.8352 144.8943 L 168.1036 143.4896 L 169.6559 142.7163 C 170.5097 142.291 171.5831 141.6701 172.0413 141.3366 C 172.4995 141.0031 172.8896 140.7302 172.9083 140.7302 C 172.9269 140.7302 173.0413 141.0575 173.1624 141.4576 C 173.2836 141.8578 173.7556 143.1108 174.2113 144.2421 C 174.6671 145.3735 175.1618 146.7006 175.3109 147.1913 C 176.0506 149.627 176.0524 151.3646 175.317 153.0301 C 175.1753 153.3508 175.0793 153.6651 175.1035 153.7283 C 175.1277 153.7916 175.5688 153.9902 176.0836 154.1697 C 180.9686 155.8729 184.3484 158.3132 185.0366 160.6337 C 185.2567 161.3762 185.2286 162.48 184.9718 163.1779 C 183.6792 166.6898 177.1364 169.9283 168.002 171.5775 C 163.4274 172.4034 159.6784 172.8174 156.179 172.8832 C 155.0217 172.905 154.2552 172.9046 154.4756 172.8824 Z M 129.3767 171.0255 C 124.8293 169.8385 121.8064 168.6473 119.4574 167.1167 C 118.1752 166.2812 116.8178 164.9022 116.3495 163.9593 C 116.012 163.2798 116.0006 163.2192 116.0006 162.103 C 116.0006 161.0043 116.0163 160.9171 116.3268 160.2813 C 116.6895 159.5389 117.7513 158.3333 118.6465 157.6474 C 119.9366 156.659 122.0221 155.5785 124.2947 154.7211 C 125.2807 154.3491 125.5868 154.1905 125.6261 154.0314 C 125.6541 153.9177 125.8523 152.7704 126.0664 151.4818 L 126.4557 149.1389 L 126.0056 147.9726 C 125.2094 145.9095 124.8648 144.4397 125.0159 143.7508 C 125.1255 143.251 125.3058 143.3869 125.5677 144.1669 C 128.6081 153.2222 133.348 158.8382 140.4921 161.8495 C 141.2196 162.1561 141.6061 162.1864 141.048 161.8931 C 136.4838 159.4941 133.5638 156.8124 130.5146 152.2193 C 129.591 150.8282 128.2235 148.4741 128.2965 148.401 C 128.3239 148.3737 129.7166 148.5485 131.3914 148.7895 L 134.4366 149.2278 L 135.6389 149.9649 C 136.3002 150.3703 137.5063 151.0333 138.3192 151.4382 C 139.132 151.8431 139.797 152.2153 139.797 152.2653 C 139.797 152.3775 139.817 152.372 137.767 152.8324 C 136.7119 153.0694 136.1346 153.2413 136.214 153.295 C 136.3311 153.3743 137.5087 153.3496 140.0976 153.2134 L 141.1497 153.1581 L 142.1255 153.8996 C 144.2442 155.5093 146.8518 156.5692 150.8185 157.433 C 152.2691 157.7489 154.1822 158.0864 155.4025 158.2418 C 155.7388 158.2847 155.9285 158.3568 155.9285 158.4418 C 155.9285 158.515 155.4663 159.0453 154.9015 159.6203 C 151.6537 162.9265 147.5703 165.0691 143.3797 165.6656 C 142.1739 165.8373 139.9962 165.8591 138.7924 165.7115 C 137.0116 165.4933 134.9728 164.8613 133.2533 163.9947 C 132.2547 163.4914 130.4874 162.2881 130.416 162.0628 C 130.38 161.949 130.2103 160.9888 130.0389 159.929 C 129.8676 158.8693 129.6832 157.9879 129.6293 157.9705 C 129.5753 157.953 129.395 158.5673 129.2285 159.3355 C 129.062 160.1037 128.88 160.7474 128.8241 160.7659 C 128.7681 160.7844 128.3182 160.3929 127.8242 159.896 C 127.3302 159.399 126.8724 158.9924 126.8068 158.9924 C 126.6191 158.9924 125.6797 160.094 125.395 160.648 C 125.0507 161.318 124.9728 162.3828 125.2139 163.1212 C 126.0181 165.5834 129.8574 167.6774 136.0397 169.0258 C 136.5908 169.146 137.1199 169.2856 137.2156 169.3361 C 137.3113 169.3866 137.5593 169.4347 137.7667 169.443 C 138.0726 169.4552 138.0913 169.4659 137.866 169.5 C 137.7133 169.5231 137.2624 169.472 136.8641 169.3863 C 136.4658 169.3006 135.8017 169.1602 135.3884 169.0743 C 129.6069 167.8725 125.6151 165.8636 124.3168 163.5025 C 124.0487 163.015 124.0164 162.8637 124.0177 162.103 C 124.0196 160.9545 124.2843 160.4444 125.4887 159.2688 L 126.3877 158.3912 L 126.1722 158.042 L 125.9567 157.6927 L 126.1638 156.2074 C 126.2777 155.3904 126.369 154.6104 126.3668 154.4741 L 126.3628 154.2261 L 126.2289 154.477 C 126.1552 154.615 125.9673 155.1229 125.8114 155.6058 C 125.4085 156.8539 125.2826 156.7607 125.4589 155.3447 C 125.5095 154.938 125.497 154.7439 125.4183 154.7137 C 125.1316 154.6035 122.6087 155.8459 121.1106 156.835 C 116.8114 159.6735 116.4016 163.0249 119.9751 166.119 C 121.7882 167.6888 124.5988 169.0874 128.8743 170.5472 C 130.0033 170.9326 130.9464 171.2675 130.9701 171.2912 C 131.0871 171.4084 130.4132 171.296 129.3767 171.0255 Z M 154.0749 169.5283 C 153.9191 169.4612 153.968 169.4404 154.2944 169.435 C 154.8291 169.426 158.6273 168.9769 159.8549 168.7775 C 161.2072 168.5579 161.7021 168.5876 160.7379 168.8305 C 159.5686 169.1251 158.3202 169.323 156.6299 169.4818 C 154.8942 169.6449 154.3682 169.6545 154.0749 169.5283 Z M 146.5602 153.108 C 147.9421 152.9538 151.5306 152.9532 152.9226 153.1069 C 153.8562 153.21 153.4952 153.2236 149.7164 153.2271 C 145.8347 153.2307 145.5555 153.2202 146.5602 153.108 Z M 155.2772 150.5562 C 154.6159 150.5151 152.2488 150.4709 150.017 150.458 C 145.7484 150.4334 145.5046 150.3611 149.0301 150.1656 C 150.5357 150.0821 151.709 150.0797 153.3385 150.157 C 155.2247 150.2465 157.6098 150.4805 157.9825 150.6126 C 158.1438 150.6698 156.5807 150.6372 155.2772 150.5562 Z M 158.8979 145.114 C 158.7894 144.6809 158.2576 144.0713 157.7911 143.8451 C 157.5381 143.7225 157.3312 143.6045 157.3312 143.583 C 157.3312 143.5614 157.5027 143.4562 157.7122 143.3491 C 158.2086 143.0956 158.7046 142.5817 158.8549 142.1654 C 159.0054 141.7485 159.0962 141.748 159.2694 142.1631 C 159.4447 142.5834 159.9508 143.0905 160.4488 143.345 C 160.6629 143.4543 160.838 143.5614 160.838 143.583 C 160.838 143.6045 160.6361 143.7201 160.3893 143.8397 C 159.9391 144.058 159.4541 144.5732 159.2252 145.0764 C 159.0748 145.407 158.9743 145.4186 158.8979 145.114 Z M 134.8875 143.2422 C 134.8875 143.0672 134.2459 142.4093 133.9565 142.2874 L 133.673 142.168 L 134.0548 141.8767 C 134.5237 141.5188 134.8801 141.1232 134.8843 140.9559 C 134.8882 140.802 135.188 140.7867 135.188 140.9404 C 135.188 141.1514 135.6134 141.6462 136.0104 141.8972 L 136.4105 142.1502 L 135.9954 142.3558 C 135.7373 142.4837 135.4967 142.7082 135.3591 142.9495 C 135.1557 143.3063 134.8875 143.4728 134.8875 143.2422 Z M 144.4678 136.9823 C 144.174 136.3808 143.6574 135.8826 143.1285 135.6906 C 142.6874 135.5305 142.7195 135.3965 143.2515 135.1774 C 143.7721 134.963 144.2524 134.4547 144.5316 133.8226 L 144.7285 133.3769 L 145.0232 133.9919 C 145.3296 134.6312 145.7075 134.9951 146.3402 135.2598 C 146.5439 135.345 146.7105 135.4361 146.7105 135.4622 C 146.7105 135.4883 146.5414 135.5802 146.3348 135.6664 C 145.8074 135.8865 145.2219 136.4792 144.9628 137.0555 L 144.7427 137.545 L 144.4678 136.9823 Z M 154.1811 131.9455 C 154.0891 131.8049 153.8756 131.6056 153.7067 131.5027 L 153.3995 131.3157 L 153.7166 131.1515 C 153.8909 131.0612 154.1145 130.854 154.2135 130.6911 L 154.3933 130.3949 L 154.69 130.7211 C 154.8532 130.9004 155.0962 131.1197 155.2299 131.2084 L 155.473 131.3696 L 155.1506 131.5366 C 154.9733 131.6284 154.755 131.8155 154.6655 131.9523 C 154.4609 132.2649 154.3895 132.2639 154.1811 131.9455 Z"
          fill-rule="evenodd"
          fill="#FFFFFF"
          fill-opacity="1"
          stroke="#FFFFFF"
          stroke-opacity="1"
          stroke-width="0.1"
          stroke-linecap="round"
          stroke-linejoin="round"/>
  </defs>

  <!-- Full‑frame twilight‑indigo background -->
  <rect x="0" y="0" width="256" height="256"
      fill="url(#indigoTwilight)"
      rx="20" />



  <!-- Sigil rendered with warm-gold gradient stroke -->
   <!-- Scaled sigil (tight frame) -->
  <g transform="translate(-367.5, -367.5)  scale(3.25)">
    <use xlink:href="#path_c9d98bc8958738934ec77f5d536a05b3"
         fill="#FFFFFF"
         stroke="#FFFFFF"
         stroke-width="1"
         stroke-linecap="round"
         stroke-linejoin="round"/>
  </g>
</svg>
